<svg width="14" height="16" viewBox="0 0 16 16" fill="none" xmlns="http://www.w3.org/2000/svg">
<path d="M13.5484 2.64516L13.6989 16L8.8602 15.9785L0 12.4946L0.27957 11.871H0.70968L0.90323 11.5054L0.83871 11.0753L0.4086 10.8817L0.43011 10.5591L0.34409 10.1935V9.9785L0.55914 9.871L0.83871 9.5699L0.96774 9.1183L0.90323 8.4301L1.22581 8L1.87097 7.5699L1.29032 7.0538L1.2043 6.5591L0.7957 5.871L0.73118 5.1613L0.90323 4.9462L0.70968 4.086L0.7957 3.0753L0.62366 2.66667L0.70968 2.4086L1.07527 2.30107L1.50538 2.4086L1.78495 2.70968L2.043 2.66667L2.2151 2.21505L2.3441 0L13.5484 0.15054V2.64516Z" fill="#E6CAAF"/>
</svg>
