<svg width="16" height="16" viewBox="0 0 16 16" fill="none" xmlns="http://www.w3.org/2000/svg">
<path d="M9.0663 15.6145L8.912 15.5952L8.7193 15.1904H8.7771L9.0663 15.6145ZM7.3699 14.8627L7.4855 14.8819V14.9398L7.2928 14.8627H7.3699ZM9.0663 14.6121L9.1048 14.7663H8.9506L8.7 14.5349L9.0663 14.6121ZM6.5988 13.6289L6.6373 13.7446L6.4446 13.8602L6.3096 13.6289H6.5988ZM6.2133 13.5904V13.6289L6.0205 13.5904L6.0976 13.5325L6.2133 13.5904ZM6.9072 13.5518L7.2735 13.5325L7.312 13.5904L6.9458 13.706L6.7337 13.5325L6.9072 13.5518ZM6.3867 1.8506L6.4446 5.1084L14.1361 11.547L14.6181 12.3952L14.9843 12.6265L14.4446 13.2819L14.4831 13.9952L14.194 14.2265L14.3675 14.8048L14.6566 14.9398L14.6373 15.3446L10.8976 16L10.7434 15.7687L10.8976 15.8072L10.859 15.6916L10.6855 15.7687L10.5699 15.0747L10.2229 14.6121L9.3169 13.9952L8.9506 14.0145L8.7771 13.5518L8.353 13.5904L7.8904 13.4361L7.6398 13.147L7.1771 12.9157L5.9241 12.8386L5.7313 12.7229V11.6819L5.3651 11.5855V11.2386L4.8253 10.8337L4.4976 10.2747L3.9964 9.7735L3.8807 9.2337L4.0349 9.1952L4.1313 8.8482L3.9386 8.6361H3.6301L3.3795 8.347L3.0904 7.6723V7.2289L3.2639 7.1711L3.2831 7.5181L3.6301 7.7687H3.7651L3.553 7.306L3.3795 7.1711L3.2639 6.8819L3.3024 6.8048L3.4952 6.7855L3.5916 6.8048H4.2277L4.2855 6.6313L4.5747 6.8048L4.3434 6.6313L4.1313 6.7855L4.2277 6.612L3.9193 6.7855L3.7651 6.612L3.5723 6.7855L3.2639 6.5928L3.0904 6.612L3.1867 7.0361L3.0904 7.1325L2.53133 6.7084L2.43494 6.8627L2.47349 6.4578L2.66627 6.6313L2.3 6.0337L1.50964 5.2048V4.9157L1.3747 4.453L1.45181 3.9133L1.22048 3.412L0.7192804 2.98795L0.7 2.66024L0.83494 2.19759L1.06627 1.96627L0.9506 2.1012L1.18193 0.94458L1.04699 0.52048L0.9506 0.34699L0.96988 0H6.3675L6.3867 1.8506Z" fill="#F5F5DC"/>
</svg>
