<svg width="16" height="16" viewBox="0 0 16 16" fill="none" xmlns="http://www.w3.org/2000/svg">
<path d="M6.1115 0.17902L7.6134 0.26853L7.658 0.53706L8 0.50723L8.0149 0.26853L15.881 0.29837L16 5.848L15.9257 7.0415L15.7323 7.2951L15.6134 8.041L15.3606 8.1305L15.4796 7.9515L15.2714 7.8471H14.6171L14.0223 8.1305L13.6357 7.7427L13.4275 8.2051L12.7435 8.041L12.6691 8.3394L12.4461 8.22L11.9257 8.5333L11.4498 8.235V7.8322L11.0483 7.6382L11.3903 8.1007L11.2862 8.3394L11.4349 8.4438L11.2565 8.5781L10.5576 8.4737L10.1115 8.8019L10.0074 8.6825L9.8439 8.7422L9.3234 8.5333L8.8476 8.6527L8.6097 8.8019L8.1933 8.6825L7.658 8.7869H7.0186L6.855 8.5781L6.8104 8.2499L6.0074 9.2047L5.6654 9.2793L5.0706 9.7417L4.8327 9.8462L4.6543 9.6373L4.2825 9.8909L4.1784 9.8312L3.9108 10.1594L3.6283 10.0699L3.1375 10.3235L2.08178 10.9949L1.829 10.98L1.6803 11.2783L1.62082 11.1888L1.14498 11.4424L0.99628 11.2932L0.62454 11.4872L0 10.4429L2.0223 9.2494L1.51673 8.3841L2.09665 0L6.1115 0.17902Z" fill="#E6CAAF"/>
</svg>
