<svg width="16" height="16" viewBox="0 0 16 16" fill="none" xmlns="http://www.w3.org/2000/svg">
<path d="M11.3808 16H11.3415L11.4201 15.9803L11.3808 16ZM12.226 15.9214V16H12.0491L12.0885 15.9803L12.226 15.9214ZM12.4226 15.9214L12.226 16L12.3047 15.9017L12.4226 15.9214ZM11.3808 15.9017L11.4201 15.9214L11.3415 15.9017H11.3808ZM13.2678 15.7445H13.1695L13.3071 15.7248L13.2678 15.7445ZM12.8747 15.7445L12.8157 15.7248V15.6658H12.8747V15.7445ZM12.6585 15.6658L12.7174 15.7641L12.4423 15.9214L12.5602 15.7445L12.6978 15.7641L12.6585 15.6658ZM12.7961 15.6658L12.7174 15.7445V15.6462H12.7764L12.7961 15.6658ZM13.1499 15.6658L13.0909 15.6462V15.6265V15.6462L13.1499 15.6658ZM13.6806 15.6462L13.5037 15.6265L13.7592 15.5676V15.6265L13.6806 15.6462ZM13.0713 15.7445L13.0516 15.7641L12.9533 15.5479L13.0319 15.6265L13.0713 15.7445ZM13.9951 15.5479L13.7592 15.6265L14.0147 15.4103L13.9951 15.5479ZM14.2703 15.312V15.371L14.1327 15.3907L14.2703 15.2924V15.312ZM14.4668 15.2924H14.4472L14.4668 15.1941V15.2924ZM14.6241 15.1155H14.6044L14.7027 15.0369L14.6241 15.1155ZM13.7396 14.2113H13.6806V14.1327H13.7592L13.7396 14.2113ZM13.6216 14.0934H13.6806L13.6609 14.1327L13.5823 14.0934H13.6216ZM15.2531 14.5061L14.801 15.0369H14.742L15.2531 14.3489V14.1916L15.5086 14.0344L15.2531 14.5061ZM15.5676 13.8575L15.5479 13.8968L15.6462 13.7396L15.6265 13.7789L15.5676 13.8575ZM15.6855 13.2285H15.6462L15.6658 13.1302H15.6855V13.2285ZM13.0516 12.9533H12.8747V12.8747L12.9533 12.8157L13.0516 12.9533ZM12.8157 12.7961V12.8943L12.7174 12.8157L12.7764 12.7961H12.8157ZM12.4226 12.7764L12.344 12.8157L12.3047 12.7764H12.4226ZM12.6978 12.7961L12.6585 12.8157V12.7174L12.6978 12.7764V12.7961ZM11.4201 11.3415L11.5971 11.4005L11.3415 11.3415L11.2432 11.1646L11.4201 11.3415ZM11.1646 10.9287V10.9877L11.145 10.8108H11.1646V10.9287ZM11.4988 11.2432L11.4398 11.1843L11.2629 10.8108L11.4201 10.8305L11.4988 11.2432ZM11.145 10.6929L11.086 10.7912V10.5356V10.5749L11.145 10.6929ZM10.4177 9.2383V9.258L10.2211 9.0025H10.2801L10.4177 9.2383ZM10.4177 8.7273H10.3784H10.4177ZM15.6462 9.5921L15.4103 9.0221L15.0565 7.9803L15.2531 8.3342L15.6462 9.5921ZM14.6241 7.2531L14.6044 7.0958L14.6241 7.1941V7.2531ZM14.6241 6.2899L14.6044 6.6241V7.0958L14.3882 6.3882L14.6044 6.172L14.6241 6.2899ZM10.2211 5.8182H10.2801V5.8575H10.2211V5.8182ZM10.2211 5.7789V5.7199L10.2801 5.7789H10.2211ZM9.5135 4.855H9.4545V4.8354L9.4939 4.7764L9.5135 4.855ZM5.1892 3.4201L5.1106 3.5381L4.9533 3.4201H5.0909H5.1892ZM5.4447 3.5774L5.3071 3.6364L5.1892 3.5577H5.3857L6.0541 3.2236L5.4447 3.5774ZM6.2113 3.2039L6.0934 3.2236L6.3096 3.1057L6.2113 3.2039ZM2.16216 1.55283L0.70762 1.63145H0.60934L1.88698 1.49386L2.24079 1.55283H2.16216ZM10.4177 8.7273L10.8894 8.059L10.8108 7.8034H10.7125V8.059H10.5553L10.5356 7.7248L10.2211 7.5872V7.7052H10.2998L10.1818 7.7838L10.4767 7.941L10.2801 8.3342L9.9656 8.0393L10.1228 8.2948V8.4128L9.8673 7.9017L10.2801 6.5455L10.3784 5.8968L10.2211 5.7002L10.3784 5.7199V5.4644L10.2015 5.2482L10.0639 4.7764H9.5135L9.14 4.1671L8.7666 3.8919L8.8059 3.5774L8.4914 3.4201L8.2162 2.92875L7.5086 2.49631L7.1744 2.57494L7.0958 2.457L6.6634 2.61425L6.7813 2.75184L6.5651 2.67322L6.5455 2.75184L6.7813 2.85012V2.92875L6.742 2.96806L6.4668 2.92875L5.6609 3.3022L5.7002 3.1843L5.3857 3.3415L4.6781 3.4201L4.6192 3.3022L4.5012 2.96806L4.6781 3.4201L4.7568 3.1057L4.6781 2.92875L4.0098 2.26044L4.4816 2.59459L4.6192 2.51597L4.4226 2.57494L4.4029 2.26044L4.2457 2.33907L3.9115 2.14251L4.3047 1.9656L4.2457 1.86732L3.9705 1.98526L3.8329 1.86732L3.656 1.9656L3.8329 2.00491L3.9115 2.26044L3.2039 1.86732L2.26044 1.53317L2.61425 1.61179L2.75184 1.49386L2.85012 1.63145V1.49386L3.1253 1.63145L3.0467 1.39558L2.88944 1.2973L2.49631 1.41523V1.2973L2.29975 1.27764L2.10319 1.53317L1.74939 1.49386L0.84521 1.61179L1.4742 1.39558L1.21867 1.21867L1.31695 1.10074L1.19902 0.96314L1.10074 1.31695L0.86486 1.04177L0.94349 1.2973L0.68796 1.61179L0.13759 1.74939L0.51106 1.31695L0.35381 1.17936L0.45209 0.78624L0 0.33415L0.05897 0L5.4644 0.23587L5.7199 0.92383L11.2432 1.41523L11.4201 1.90663L11.656 1.88698V0.96314L11.7936 0.84521L12.9533 1.10074V1.53317L12.7961 1.2973V1.49386L13.0319 1.65111L13.3268 3.3022L14.0147 5.0909L14.6241 6.0737L14.86 6.5061L14.7224 6.6634V7.0958L15.0565 7.9607L14.6241 7.0958L14.7027 6.172H14.3489L14.3686 5.8182L14.1327 5.7199L14.4472 6.7224L15.1744 8.4128L15.2531 8.8452L15.5676 9.6118V9.5725L15.312 9.4939L15.6855 9.7494L15.9214 10.5356L15.6855 13.0516V12.7174L15.4103 13.4054L15.3317 14.0344L15.1155 14.3292L15.1744 14.4668L15.0762 14.3292L14.9582 14.3489L15.0565 14.3882L15.0762 14.5061L14.9582 14.4472L14.9386 14.3292L14.4668 14.5455L14.1327 14.4668L13.6806 14.6634L13.5037 14.5061L13.4251 14.3292L13.5823 14.0934L13.6806 14.2113L13.8968 14.3489H13.8182L14.0147 14.2899L13.5037 13.9754L13.4251 13.543L13.0516 12.8943L12.4619 12.6192L12.226 12.6978L12.4226 12.5209L12.226 12.4619L12.1081 12.1671V12.285L11.9705 11.4005L11.9115 11.2629V11.4005L11.656 11.3415L12.1081 10.7912L11.8722 10.9091L11.7936 11.1646H11.5381L11.4988 10.2801L11.774 10.0639L11.3415 10.2211L11.086 9.9656L11.3415 10.5553L11.0074 10.457L10.4767 9.3563L10.457 9.0811L10.2015 8.9042L10.1228 8.7862L10.2801 8.9042L10.2211 8.8452H10.4177L10.2998 8.7469L10.457 8.7273H10.4177ZM14.2506 9.5921L13.6609 10.1818L14.0934 10.6536L14.4472 10.8305L14.6241 10.1228L14.5258 9.828L14.2506 9.5921Z" fill="#F5F5DC"/>
</svg>
