<svg width="14" height="16" viewBox="0 0 14 16" fill="none" xmlns="http://www.w3.org/2000/svg">
<path d="M11.8234 14.7532L11.7195 14.2545L11.9481 13.9844L11.8234 14.5247V14.7532ZM1.55844 8.8519L1.18442 8.0623L0.95584 7.0857L0 0L7.0442 0.12467L6.4623 0.72727L6.3792 1.1013L6.8571 1.47532L7.2312 1.84935L7.7091 1.99481L8.1455 2.97143L8.5818 3.6779L9.4338 4.3429L9.6831 4.9247L10.4104 5.3818V5.7558L10.6597 5.9221L10.6182 6.1091L10.8468 6.213L10.9091 6.4831L11.5948 6.8571L11.9481 7.8753V8.3117L12.5506 8.7688L12.7169 9.3091V9.9532L13.6104 10.3896L13.4234 10.5558L13.3195 10.4935L13.2156 10.6182L13.3195 10.7429L13.1948 10.8468L12.7792 10.7429L12.8623 10.826L12.7169 10.9299L13.0493 10.9922L12.8416 11.3039L12.3221 11.2208L12.5506 11.4078L12.426 11.574L12.6961 11.5117L12.7169 11.4078V11.5117L12.6545 11.8857L12.426 11.6364L12.5506 11.7818L12.1766 11.9481L12.3429 12.0104L12.2805 12.1558L12.6545 11.9688L12.3429 12.5091L12.1766 12.3844L12.3429 12.6961L11.7195 12.5922L12.1766 12.7584L12.3429 12.987L12.0519 13.361L11.9065 13.1117L11.8234 13.1325V13.4442L11.7195 13.4026L11.8442 13.5896L11.9481 13.4026L11.9065 13.7766L11.6571 13.5481L11.8234 13.7766L11.6571 13.8805L11.8234 13.9844L11.6779 14.1507L11.7195 14.3792L11.5948 14.3584L11.6779 14.8364L10.2857 14.4623L10.0987 14.7532L10.1818 15.2727L10.0571 15.9792L9.6831 16L9.4753 15.3351L1.7039 14.7325L1.32987 13.839L1.28831 13.4442L1.05974 13.1117L1.28831 11.8857L0.9974 10.9299L1.37143 9.7455L1.76623 9.3714L1.4961 9.1429L1.55844 8.8519Z" fill="#E6CAAF"/>
</svg>
