<svg width="9" height="16" viewBox="0 0 9 16" fill="none" xmlns="http://www.w3.org/2000/svg">
<path d="M8.158 0.0987701V0.84938L8.8099 2.31111L8.8296 9.1654L8.6123 9.2444L8.6914 9.5802L8.4938 9.837L8.8296 10.3111L8.8889 10.8444L8.5333 11.437L8.5728 11.6148L8.316 11.7333L8.079 12.2469L7.9012 12.1679L7.763 12.3852L7.9407 12.563L7.7235 12.7802L7.8815 12.8198L7.6642 12.8988V13.3531H7.5457L7.6642 13.5506H7.5457L7.6642 13.7284L7.4074 14.1037L7.5654 14.5185L6.6765 14.8148L6.7556 15.684L6.5778 15.7432L5.4914 15.2889L5.0765 15.7432L5.1951 16H5.0963L4.8593 15.7037L4.7605 15.7432L4.8395 15.921L4.563 15.763L4.3259 15.1506L4.4444 14.7951L4.3259 14.4V13.9852L3.3975 13.1556L2.963 12.9778L2.4296 12.3852L2.4099 12.0494L2.8444 11.1802L2.9432 10.5481L2.3111 10.2321L1.9556 10.4494L1.7975 10.3506L1.5605 9.284L0.2765 7.9802L0.0395002 7.1506L0 6.4198L0.0790005 6.1432L0.316 6.0444L0.2963 5.5111L0.8296 5.2346L1.3235 4.3852L1.2642 3.9704L1.0074 3.6346L1.1654 3.121L1.8963 3.0815L2.4494 2.80494L3.0222 1.95556L3.1012 1.18519L2.5877 0.77037L2.5481 0.43457L2.1333 0L8.158 0.0987701Z" fill="#E6CAAF"/>
</svg>
