<svg width="15" height="10" viewBox="0 0 15 10" fill="none" xmlns="http://www.w3.org/2000/svg">
<path d="M14.6172 8.3599L14.8476 9.0056L14.4329 9.1094L13.7073 8.9364L14.5251 8.7865L14.6288 8.5674L14.3753 8.7865L14.5596 8.4291L14.4905 8.2792L14.6172 8.3599ZM12.8088 8.4867L12.7742 8.5213L12.5784 8.3483L12.7742 8.1177L12.8088 8.4867ZM12.1983 7.8756L12.1638 8.037L12.3365 7.8986L12.4056 8.0485L12.2559 8.1408L12.5093 8.2215L12.5439 8.5213L11.8758 8.5559L11.4496 8.7865L11.1731 8.5559L11.5302 8.4521L11.9219 7.9794L12.1983 7.8756ZM14.6863 7.4028L14.5942 7.4259L14.7785 6.8263L14.8476 6.9531L14.6863 7.4028ZM10.9773 0.0691996L11.1962 0.0115004L11.2077 0.3229H10.9888L11.2998 0.5765L11.4496 0.934L11.2077 0.7495V0.934L11.5648 1.1416L11.4496 1.1646L11.4957 1.2684L11.7376 1.303L11.8182 1.4183V1.2107L12.0486 1.0608L12.1638 1.3837L11.7145 1.6835L10.9773 1.9602L10.9082 2.1101L11.058 2.0294L11.1155 2.1793L10.793 2.3408L10.9082 2.5483L10.6087 2.5137L10.6202 2.9519L10.4475 2.8251L10.5166 2.9519L10.3092 2.8827L10.2401 2.9519L10.4014 3.0557L10.2747 3.1018L10.3092 3.2402L10.5051 3.2056L10.4475 3.3555L10.6087 3.4016L10.6202 3.5976L11.0234 3.4938L10.8852 3.171L11.5302 3.6322L12.1638 4.8545L11.9564 4.8776L12.0601 4.8545L11.9219 4.5777L11.8527 4.8776H11.7145L12.0486 5.1889L12.3596 5.2927L12.4287 5.973L12.5439 6.0883L12.9585 6.3535L13.4884 6.4342L13.2695 6.5265L13.6381 6.4688L14.5596 6.0768L14.6863 5.9384L14.5596 5.4195L14.6979 5.3849L14.4905 5.2465L14.3753 5.5117L14.2141 4.6469L13.9376 4.5662L13.8685 4.7738L13.569 4.5316L13.6727 4.3702H13.9492L14.3753 4.6354L14.6979 5.0275L14.9743 5.8L14.7785 5.7078L14.7209 6.0537H14.9398L14.9052 6.734L13.9146 6.8263L13.5345 7.1145L13.5575 6.8955L13.0161 7.0799L12.9009 6.9531L12.5439 7.4028L11.7836 7.5758L11.9449 7.299L11.9219 6.734L12.0486 6.4688L11.9564 6.3881L11.9219 6.5265L11.6684 6.3535V6.6764H11.5648L11.4496 6.9185L11.2998 6.8493L11.1155 7.0108L11.1386 7.2183L10.8852 6.9992L10.6894 7.5642L10.3092 7.6911L10.1595 7.6795L10.3092 7.5642L10.2286 7.4028L10.1595 7.5642L9.9982 7.5066L10.0558 7.6104L9.9637 7.6911L9.9176 6.8493L9.6757 6.7686L9.9982 6.0768L9.7448 6.4688H9.549L9.4799 6.5956L9.0998 6.1921L9.0307 5.5694L8.904 5.5117L8.8348 4.8545L3.1561 4.7392L3.1216 4.8545L2.9488 4.8776V4.7392L0.12671 4.5662L0 4.4278L1.14035 0.6803L9.1689 1.0378L9.5951 0.7495L9.8485 0.392L10.1249 0.369L10.7239 0L10.9773 0.0691996Z" fill="#E6CAAF"/>
</svg>
