<svg width="11" height="16" viewBox="0 0 11 16" fill="none" xmlns="http://www.w3.org/2000/svg">
<path d="M5.9152 12.5479L5.7212 12.4703L5.6824 12.257L5.9733 12.3733L5.9152 12.5479ZM6.4 11.8109L6.303 11.8885L6.4 12.0824H6.1867L6.2836 11.6558L6.4 11.8109ZM7.5055 11.52H7.1952L7.2727 11.7333L7.1564 11.8109L6.8848 11.52L7.0594 11.1127L7.2921 11.0352L7.5636 11.3648L7.5055 11.52ZM5.5467 0.85333L5.7018 1.00848L6.6521 0.52364L6.8848 0.62061L7.1952 0.34909L7.9515 0.85333L8.4558 1.35758L8.5721 5.6824L8.4752 6.4L9.0376 6.7491L9.4836 6.8461V7.04L9.2897 7.2145L9.4836 7.6218L9.4061 8.0485L9.7552 8.417L9.9103 8.2618L10.2012 8.3394L10.5309 9.057L10.4727 9.1733L10.3176 9.1345V9.3479L10.1042 9.2703L10.2206 9.6388L10.4533 9.3673L10.5309 9.5806L10.4727 9.3479L10.7055 9.6L10.1818 10.24L9.9491 10.2206L9.9103 10.3176L9.8133 9.9879L9.6 10.0461L9.7358 10.3176L9.6 10.4533L9.503 10.2206L9.4836 10.4145L9.1733 10.2788L9.0958 10.7055L8.9018 10.5697L8.7661 10.8218L8.7467 10.4533L8.5721 10.7055V10.4533L8.4752 10.5115L8.3006 11.1709L8.2812 10.8412L8.2036 11.1515L8.1067 10.8218L7.9515 10.9188L8.1067 11.1709L7.8933 11.4618L7.7382 10.8994L7.6218 10.8218L7.5636 10.9576L7.5055 10.7055L7.4667 10.9188L7.2533 10.7055L7.2921 10.9964L7.0594 10.9188L6.9236 11.1709L6.8848 10.8412H6.7491L6.8073 11.1903L6.7491 11.1127L6.5358 11.1515L6.6327 11.7721L6.0897 11.4618L5.8764 11.5006L5.9152 11.3067L6.2061 11.1515L6.0897 11.0352L5.8764 11.1709L6.0509 10.6861L5.9152 10.5697V10.8994L5.4303 11.1127L5.5661 11.4618L5.2364 12.1406L5.2558 12.4315L4.8873 12.6448V12.8388L4.6933 12.897L4.7903 12.6061L4.5382 12.8388L4.6158 12.7224H4.4024V12.4315L4.0533 13.2461L3.9564 13.0133V13.2461L3.9952 12.5673L3.8206 12.8388L3.8012 13.3236V13.1879L3.6461 13.1491L3.7042 12.9164L3.6461 12.8L3.7042 12.5479L3.3552 13.0521L3.4133 13.2655L3.5103 13.1879L3.3552 13.5176L3.3358 12.4315L3.0642 12.7224L3.0836 12.8L3.2 12.703L3.3164 13.6145L3.2 13.7697L3.0642 13.1491V13.3624L2.7539 13.6145L2.8897 13.2461L2.6376 13.537L2.8509 13.1685L2.6958 13.2461L2.7733 13.1491L2.2303 13.4788L2.0752 13.8473L1.9394 13.8861L2.1527 14.0024V14.1964L1.8036 14.3127L1.7067 14.5649L1.823 14.623L1.2606 15.0497L0.8727 15.9806L0.7176 15.903L0.6206 16L0.4461 15.6703L0.4848 15.3794L0.1164 14.817L0 7.7964L0.2521 7.6412L0.4848 8.0679L0.7176 7.3697L0.9697 7.5055L1.1636 7.4473L0.9503 7.0788L1.2994 6.5358L1.7842 6.3224V6.0315L2.1721 5.5661L2.0558 5.3721L2.0752 5.023L2.2303 4.7903L2.1527 4.5188L2.4242 4.0145L2.7152 3.7624L2.8509 2.73455L4.8291 0L5.2752 0.0969701L5.3333 0.67879L5.5467 0.85333Z" fill="#E6CAAF"/>
</svg>
