<svg width="16" height="7" viewBox="0 0 16 7" fill="none" xmlns="http://www.w3.org/2000/svg">
<path d="M11.5867 5.96L11.5067 6.1333L11.4133 6.1067L11.4533 6.04L11.5867 5.96ZM11.7733 5.4L11.7067 5.5733L11.68 5.5867L11.7333 5.4267L11.7733 5.4ZM12.64 4.64L12.32 4.7867L12.12 4.9733L12.2267 4.8533L12.44 4.68L12.64 4.64ZM14.1067 4.3467H14.0667L13.8933 4.2267L14.04 4.2667L14.1067 4.3467ZM13.8133 4.2267H13.5733L13.08 4.3467L13.4267 4.2267L13.72 4.2L13.8133 4.2267ZM14.1333 4.4133L14.3333 4L14.68 3.6267L14.36 4.0267L14.1333 4.4133ZM14.8 3.56L14.8933 3.3867H14.9733L14.8 3.5067V3.56ZM15.1867 3.24L15 3.36L15.0667 3.2667L15.44 3.0667L15.1867 3.24ZM15.8533 3L15.5067 3.0933L15.9067 2.84L15.9467 2.2533L15.8533 1.7867L16 2.2L15.9333 2.7467L15.8533 3ZM15.68 1.6933L15.6133 1.6667L15.48 1.4533L15.6133 1.4667L15.68 1.6933ZM15.32 0.6133L15.48 1.0267L15.8533 1.7733L15.48 1.2667L15.5333 1.2533L15.2933 0.6533L15.16 0.12L15.32 0.6133ZM15 0.12H15.0933L15.12 0.2267H15L14.9467 0.12H15ZM7.56 0.2267L14.8933 0.12V0.2933L15 0.3867V0.44L15.0933 0.52V0.3867L15.3333 1.1467L15.0133 0.6533L15.12 0.96L14.6267 0.64L14.8667 0.9733L14.68 1.0533L14.4533 0.8533L14.5733 1.1333L14.1333 0.88L14.4267 1.1467L13.9333 1.3467L13.7467 1.2533L13.6933 0.96L13.7467 0.7333L13.64 0.6533L13.6133 1.08L13.7467 1.3467L13.6933 1.4667L14.2267 1.3733L14.52 1.4933L14.48 1.4L14.8933 1.3733V1.7867H14.7733L14.9467 1.9867L14.7467 2.0133L14.9467 2.1067L15 1.5733L15.0933 1.4933L15.2133 1.5867L15.16 1.4667H15.2933L15.2667 1.3733L15.48 1.6933V2.1067L15.2933 2.2533L15.2133 2.1067L14.9733 2.6267L14.7467 2.7733L14.3867 2.6533L14.36 2.7733L14.2533 2.52L14.1333 2.68L13.96 2.4533L14.16 2.36L13.84 2.4L13.9333 2.68L13.1067 2.4L13.28 2.6267L14.16 2.9467L13.8133 3.1867L14.0133 3.16L14.04 3.2933L13.64 3.5867L13.08 3.24L13.32 3.6133L13.6933 3.7733L13.9067 3.5867L14.0667 3.7067L14.0133 3.5867L14.16 3.6133L14.2267 3.3867L14.2133 3.68L14.4533 3.5867L14.3867 3.48L14.5467 3.6133L14.1333 4.12L13.9333 3.9467L13.9067 4.2L13.8133 4L13.64 4.0933L13.7867 4.1467H13.4267L13.08 4.2667L13 4.0933V4.2667L12.68 4.5333L12.5467 4.4667L12.6667 4.3467L12.4667 4.12L12.56 4.36L12.44 4.44L12.56 4.64L12.2667 4.76L11.9333 5.08L11.5867 5.9333L11.6133 5.5733L11.5067 5.3733L11.56 5.7867L11.3867 6.04L10.7733 5.9067L10.4267 6.1067L8.44 4.04L6.4 3.9467L6.3867 3.68L6.1333 3.3067L5.9067 3.4133V3.24L3.5333 3.04L2.21333 3.4533L0 3.3867L0.0933299 2.84L0.49333 2.7733L0.61333 2.4533L0.84 2.2533L1.54667 2.1867L2.16 1.7867L2.48 1.72L2.68 1.3733L2.82667 1.4533L3.1333 1.1467L3.2667 1.3733L3.9067 0.96L4.1733 1.08L4.4933 0.64L4.8133 0.56L4.9067 0L7.56 0.2267Z" fill="#E6CAAF"/>
</svg>
