<svg width="9" height="16" viewBox="0 0 9 16" fill="none" xmlns="http://www.w3.org/2000/svg">
<path d="M6.58 0.32L7.22 10.7L7.1 11.74L7.8 12.66V13.18L8.18 13.66L8.12 13.8L8.34 13.76V13.86L7.9 14.9L7.38 14.86L6.72 15.3H6.4L6.14 15.68L5.68 16L0.42 15.82L0.0200005 15.18L0 14.9L0.18 14.34L0.38 14.12L0.54 12.58L0.7 12.34L0.76 10.74L1.06 10.42L1.18 9.74L1.6 9.34L1.72 8.74L2.1 8.18L2.02 8L2.3 7.4L2.36 6.3L2.62 5.94L3.2 5.9L3.96 5.26L4.28 4.86L4.34 4.52L4.54 4.42L4.16 3.48L4.7 2.52L4.6 1.88L5.14 0.6L4.98 0.46L5.54 0.0599999L6.2 0.36L6.52 0L6.58 0.32Z" fill="#E6CAAF"/>
</svg>
