<svg width="16" height="16" viewBox="0 0 16 16" fill="none" xmlns="http://www.w3.org/2000/svg">
<path d="M9.5121 12.8194H9.1824L8.9691 12.6836L9.357 12.8194L9.5121 12.4703H9.8224L9.5121 12.8194ZM10.1909 11.8303L9.997 11.9855L10.8309 10.4533L10.6564 11.1515L10.1909 11.8303ZM11.3545 3.6655L11.18 4.1503L10.6564 4.48V4.1503L10.3267 4.6739L9.997 5.3139V5.8182L10.3267 5.9733H10.6564L11.3545 6.303L11.4903 6.1479L11.3545 5.8182L11.4903 6.1479V7.0012L11.18 8.32V8.6691L10.9667 10.2982H10.8309L11.18 8.8436L10.9667 8.4558V8.8436L10.6564 8.9794L10.8309 9.1539L10.6564 9.3091L10.8309 9.4836L10.5012 10.2982V10.8412L9.6673 11.8303L9.8224 12.16L9.5121 11.8303H9.357V12.2958V12.4703H8.9691V12.8194H9.1824L9.357 13.1491L8.6588 13.4594L8.8139 13.1491V12.9939L8.4842 13.4594H8.1739L7.98 13.6533H8.4842L7.98 14.1576L7.8248 14.6812H7.5145L7.8248 14.8364L7.34 15.3406V15.4764L6.8164 15.8642L6.4867 16V15.3406L6.8164 14.8364L6.6612 14.3321H6.1764L5.9824 14.1576L5.517 14.3321L5.3424 13.983L4.9739 13.4594H4.6442L4.4891 13.1491L4.3339 13.3236L3.5 12.2958V12.16H3.6358V11.8303L3.5 11.4812L4.1594 10.143L4.6442 9.9879L5.517 9.8133L5.8273 9.4836L5.6721 9.1539H5.8273L6.6612 8.4558L7.5145 7.9903L7.6503 7.8158L6.4867 6.4582L6.3509 6.1479H6.1764L5.8273 5.3139L5.3424 5.1394V3.9758L5.517 3.6655H5.8273L5.9824 3.1612L5.6721 2.46303L6.1764 1.97818L6.6612 1.47394L6.9909 0.46545L7.34 0.13576L7.8248 0L11.82 2.30788L11.6648 2.83152L11.3545 3.6655Z" fill="#E6CAAF"/>
</svg>
