<svg width="16" height="16" viewBox="0 0 16 16" fill="none" xmlns="http://www.w3.org/2000/svg">
<path d="M11.4981 13.2542V13.4058L11.1331 13.6333L11.27 13.2845L11.4981 13.2542ZM13.2015 13.1783L12.8669 13.2997L12.5323 13.33L13.0038 13.2238L13.2015 13.1783ZM13.384 13.2238L13.0951 13.2845V13.2542L14.1293 12.875L13.384 13.2238ZM15.1939 11.8892L14.4335 12.5262H14.7833L15.057 12.1773L15.3308 12.1925L15.346 12.0863L15.4829 12.238L16 12.0408L14.2357 12.875L14.4183 12.7688L12.2129 13.33L12.4867 13.3907L11.7871 13.4817L12.1369 13.33L11.9848 13.2238L11.8327 13.2845L11.8783 13.3907L11.6198 13.4513L11.5437 13.2542L11.7871 12.9053L12.1369 12.875V12.7537L12.1825 12.7992L12.2129 12.602L12.3498 12.7688L12.4106 12.5565L12.6844 12.5717L12.7605 12.42L12.9125 12.5565L12.8365 12.42L13.2167 12.5262L13.4297 12.3745L14.4335 12.3138L14.9962 11.8588L15.1939 11.8892ZM15.6806 11.5403L15.635 11.51L15.8175 11.4342L15.711 11.5403H15.6806ZM1.88593 6.5808L1.76426 6.7325L1.673 6.6567L1.68821 6.4898L1.88593 6.5808ZM7.2395 4.1693L7.1331 4.2603L7.27 4.0632V4.1542L7.2395 4.1693ZM7.5437 3.3655L7.5894 3.3958L7.4068 3.4413L7.4373 3.3958L7.5437 3.3655ZM7.8631 3.1987L7.7719 3.2745L7.6502 3.3958L7.6198 3.2745L7.8631 3.1987ZM9.9468 1.5H12.8365V1.65167L12.8213 2.5617L12.9734 3.0167L12.8973 3.5778L12.6844 4.0632L12.8365 4.8063L12.73 5.2765L12.7605 5.3827L12.9734 5.2462L13.0494 5.4433L13.0951 7.597L12.6236 9.3715L12.5323 11.5403L12.6844 11.7223L12.1825 12.0408L12.3498 12.3138L12 12.6475L12.0304 12.7688L11.7871 12.7992L11.6198 13.0722L11.8783 12.238L11.7567 11.4493L11.6502 11.5858L11.8023 12.3138L10.1901 11.3432L10.0989 11.1612L9.597 10.964L9.4601 10.6758L9.4449 10.0995L9.0798 9.9478L8.9125 9.6142L0 9.2653L0.04563 8.5525L1.32319 7.7942L1.56654 7.4302L1.88593 7.2633L1.80989 6.7325L1.91635 6.5353L1.56654 6.3837L1.58175 5.8983L2.98099 5.6557L4.2129 5.8377L4.5323 6.1107L4.9734 6.0045L5.749 6.1713L5.8099 6.0197L6.251 5.9438L6.8289 5.4433L7.1331 5.4737L7.3004 5.2917L7.3156 5.0945L7.27 5.14L7.1179 4.5788L7.2395 4.4423L7.27 4.5788L7.5894 4.1693L7.3004 4.23L7.4677 4.0328L7.3004 3.957L7.1179 4.0783L7.0114 3.8205L8 3.1683L8.3042 2.6072L9.1711 1.8792L9.9468 1.5Z" fill="#F5F5DC"/>
</svg>
