<svg width="16" height="12" viewBox="0 0 16 12" fill="none" xmlns="http://www.w3.org/2000/svg">
<path d="M3.1111 0.16374H3.2749L3.6959 0.49123L3.9532 1.614L4.8421 1.8947L5.731 1.4737L6.7135 1.5439L6.9708 1.7544L7.462 1.731L7.9766 1.4737H8.7251L9.9649 0.93567L10.9006 0.8655L11.0643 0.70175L15.1345 0.58479L15.3918 1.0292L15.7895 1.2164L16 1.7076L15.345 3.2749V3.5789L14.9942 4.0468L14.6901 5.0058L14.7368 5.3099L15.1579 5.3333L15.345 5.5906L15.1813 5.7778L15.2515 6.0117L15.0877 6.5497L15.345 11.5789L8.1637 11.6959L0.60819 11.5322L0.32749 11.2047L0.21053 10.5731L0.30409 9.7544L0 9.2164L0.30409 8.655L0.49123 7.8596L0.5848 7.7895L0.60819 8L0.79532 7.6491L0.93567 7.7661L0.8655 7.462L0.5848 7.7427L0.84211 7.0409L0.95906 6.807L1.12281 6.8772L1.00585 6.7836L0.8655 6.8772L1.09942 5.2398L1.19298 4.9123L1.28655 4.9591L1.16959 4.8187L1.26316 4.3743H1.35673L1.26316 4.3041V3.7895L1.47368 2.9006L1.45029 2.4094L1.61404 2.1988L1.52047 2.1053L1.56725 1.8246L1.61404 2.0117L1.73099 1.9649L1.56725 1.7544L1.73099 1.4503L1.61404 1.4971L1.52047 1.2398L1.54386 0.74854L1.66082 0.51462L1.56725 0L1.89474 0.16374L1.91813 0.32749L1.96491 0.23392L1.82456 0.0935698L1.9883 0.0701704L2.12866 0.11696L2.50292 0L2.69006 0.23392L2.87719 0.25731L3.1111 0.16374Z" fill="#E6CAAF"/>
</svg>
