<svg width="16" height="10" viewBox="0 0 16 10" fill="none" xmlns="http://www.w3.org/2000/svg">
<path d="M15.945 3.211L15.7248 3.3028L15.3028 4.0367L14.8073 4.5321L15.0275 4.9725L14.9174 5.2477L14.6789 5.3945V5.6147L14.6972 6.055L15.0092 6.0917L15.156 6.6055H15.3028L16 7.4495L14.9725 8.2202L14.9174 8.4771L14.1101 8.8073L13.6514 8.7156L13.3578 8.8624L13.1743 9.1743H12.1651L0 9.1193L0.23853 0.9541L1.04587 0.6055L1.43119 0.3119L1.30275 0.4954L2.27523 0V0.9541H14.1468L14.367 1.1376L14.422 1.3394L14.844 1.5229L14.9541 2.367L15.156 2.6972L15.8349 2.8991L15.945 3.211Z" fill="#E6CAAF"/>
</svg>
