<svg width="10" height="16" viewBox="0 0 10 16" fill="none" xmlns="http://www.w3.org/2000/svg">
<path d="M3.6965 15.6603L3.299 15.7L3.14 15.5609L3.0804 15.3423L3.1996 14.9448L3.5375 14.766V14.3089L3.7759 14.3884V14.9647L4.0144 15.4416L3.6965 15.6603ZM6.121 10.056L6.0216 9.9367L6.0415 9.3008L6.28 9.0623L6.121 8.9033L6.3396 7.9891L6.6178 8.1481V8.6847L6.439 9.7181L6.121 10.056ZM8.2475 9.3803L8.3071 9.5591L7.8699 9.42L7.373 10.0162L7.1147 9.9367L6.7768 10.2348L6.6576 10.1553L6.7371 9.7777L7.2935 9.4597L7.0749 8.9828L7.2935 8.5257V8.1481L7.691 7.6711L7.85 7.0153L8.5058 6.4589L8.3071 7.4128L8.2475 9.3803ZM9.8175 9.1219L8.9828 9.9168L8.7841 9.3008L8.8635 8.9828L8.6449 7.4923L8.6847 6.7172L8.8635 6.1409L9.738 6.4589L9.579 7.4128L9.738 7.6711L9.8175 9.1219ZM6.3794 2.20595L6.916 2.30532L6.8365 3.9747L7.1147 4.2728L7.85 4.8491L8.2475 5.5447L8.1878 6.1011L7.85 6.3794L7.4128 6.4787L7.2935 6.0216L7.6115 4.8491L7.4128 4.7497L7.2935 5.3459L6.9358 5.1472L6.6576 4.9087L6.439 4.0741L6.1806 3.5971V4.9684L6.4787 5.3062L6.598 5.5248L6.28 6.1608L6.0415 5.9223L5.7434 5.8229L5.4056 6.1409L5.7434 6.3197L5.962 7.0153L5.8825 7.3532L5.4254 8.0289L5.7235 8.6847L5.7434 9.5989L5.7235 9.9367L4.869 11.7452L4.7299 11.8048L4.0939 11.5862L3.4778 11.626L1.1725 12.4408L0 12.6594L0.159 11.3477L0.3378 10.9503L0.4968 10.8708L0.6558 9.0623L0.6359 0.09937L6.2204 0L6.3794 2.20595Z" fill="#E6CAAF"/>
</svg>
