<svg width="16" height="16" viewBox="0 0 16 16" fill="none" xmlns="http://www.w3.org/2000/svg">
<path d="M11.4459 13.697L11.4113 13.2468L11.4459 13.2121L11.4978 13.1948L11.8095 14.7186L11.4459 13.697ZM11.6364 12.7273L11.4459 13.1602L11.6364 12.5541L11.8788 12.1905L11.7056 12.5541L11.6364 12.7273ZM12.0346 11.8442L12.0866 11.8268V11.9481L11.9134 12.1905L12.0346 11.8442ZM12.2597 11.6883L12.0866 11.8788L12.2078 11.6883L12.6407 11.4978L12.2597 11.6883ZM12.7792 11.342L12.8831 11.2727L12.6926 11.3593L12.7792 11.342ZM14.6147 9.9394L14.2338 10.303L14.5281 9.9913V9.9394H14.6147ZM7.9481 0L7.9654 2.73593L8.4156 2.99567H8.6753L8.7273 2.92641L9.0043 3.2208L9.6623 3.3247L9.7662 3.4805L10.2338 3.3247L10.4589 3.671L10.7532 3.5325L11.0303 3.7749L11.3074 3.6017L11.3766 3.8788L11.6364 3.5498L11.8095 3.671L11.9827 3.6017L12.3636 3.8268L12.8312 3.5498L12.987 3.6017L13.2294 3.4978L13.4892 3.5498L13.6277 3.3939L14.6667 3.9307L15.0823 3.8788L15.2208 6.1126L15.5152 6.3723V6.6667L16 7.4113L15.7403 8.0866L15.8442 8.7965L15.5844 9.1429L15.6883 9.3333L15.4459 9.4026L14.6147 9.9394L14.6667 9.7316L14.9784 9.6104V9.5758L14.5281 9.6623L14.5974 9.3333L14.4416 9.4545L14.2338 9.4026L14.4069 9.8355L14.5281 9.9394L14.1818 10.1645V10.3377L13.8701 10.6494L13.2294 10.961V10.9784L13.4892 10.8918L12.8831 11.2727L13.1602 10.9784L12.8831 11.0996L12.987 11.0303L12.9177 10.961L12.6926 11.0303L12.6407 10.9091L12.5887 10.8918L12.658 11.0303L12.6407 11.0996L12.5541 11.1861L12.5887 11.0303L12.3636 10.961L12.5541 11.2381L12.4675 11.342L12.6407 11.3593L12.3636 11.5152L12.1905 11.342L12.2078 11.6364L12.0519 11.7922L11.9827 11.8268L12.0346 11.5844L11.9827 11.8268L11.9134 11.671L11.7056 11.7922L11.7576 12L11.9134 11.8442L11.7056 12.2424L11.2727 12.1905L11.6364 12.4675L11.4113 13.0216L11.2727 13.0736L11.342 12.8658L11.1861 13.039L10.9957 12.7965L11.1515 13.039L10.9957 13.0736H11.4113L11.2727 13.4545L11.3766 13.5931L11.2727 13.697L11.6364 14.7013L11.7922 14.7186L11.7576 14.8398L11.8095 14.7879L11.8788 14.8745L11.6364 14.9957L11.6017 15.1515L11.2035 14.8398L10.5281 14.8052L9.6797 14.4242L9.3333 14.3896L9.1602 13.8182L8.8485 13.4545L8.7619 12.6753L8.3463 12.4675L8.0346 11.9481L7.7749 11.6883L7.2727 10.4935L6.5801 9.8355L6.4416 9.8701L6.3203 9.5758L5.4199 9.5238L5.2121 9.4372L5.1082 9.5758L4.7619 9.6104L4.5541 10.3377L4.1905 10.7359L3.8961 10.6667L2.56277 9.7662L1.99134 8.329L1.47186 8L0.0692601 6.4935L0 6.2511L4.3117 6.4242L4.5022 0H7.9481Z" fill="#E6CAAF"/>
</svg>
