<svg width="16" height="7" viewBox="0 0 16 7" fill="none" xmlns="http://www.w3.org/2000/svg">
<path d="M14.8267 6.72V6.8114H14.8114L14.7505 6.7505L14.8267 6.72ZM14.9943 5.1657H14.9029L15.0095 4.9829V5.12L14.9943 5.1657ZM15.1619 4.7848L15.1467 4.7543L15.2533 4.6324L15.2229 4.6476L15.1619 4.7848ZM15.6648 3.5352L15.36 4.4343L15.2533 4.5257L15.1619 4.3886L15.0857 4.4952L15.1619 4.5257L14.9943 4.6476L14.8876 5.3029L14.8267 5.1962L14.72 5.379L14.5981 4.9676L14.7505 4.2667L14.9638 4.099L14.9943 3.7943L15.2229 3.7181L15.0857 3.5657L15.2686 3.3219L15.7714 3.2762L15.6648 3.5352ZM15.8476 3.5657L15.7867 3.6114H15.7105L16 3.2L15.8476 3.5657ZM11.0629 0.6705L11.2914 0.259L11.6114 0.3048L11.8248 0.5029L11.7333 0.7314L12.16 0.9143L12.5714 1.2648V1.6305L12.3886 1.7371L12.3581 1.8895L12.2362 1.8743L12.099 2.4381L11.9924 2.3619L12.16 2.5143L12.0229 2.5752L12.6324 2.4381L12.6781 2.5752L12.5714 2.621L12.8 2.88L13.1962 3.0324L13.4552 3.0171L13.5924 3.3219L14.1257 3.581V3.7943L13.9429 3.7181L14.019 4.2362L13.7143 4.0838L13.6381 4.2057L12.8 3.1695L12.5714 2.9867L12.4343 3.0171L12.8 3.2L13.5924 4.2362L14.0495 4.3886L13.8667 4.4952L14.1562 4.541L14.1257 4.9829L13.8514 4.6781L13.7905 4.9676L13.9276 5.059L13.76 5.12L13.12 4.4952L13.0895 4.541L13.6076 5.12L13.8971 5.1962L14.0495 5.3943L14.0038 5.4857L14.1257 5.501L14.0495 5.7143L13.8514 5.7905L13.3943 5.2267L13.2267 5.3029L12.9829 4.9829L12.8305 5.1962L12.6933 4.9829L12.6324 5.0895L12.2362 4.9371L12.2057 5.0438L12.5714 5.12L12.6781 5.059L12.7848 5.1962L13.2267 5.379L13.3486 5.3029L13.3943 5.6381L13.7448 5.8514L13.6381 6.08L13.9276 6.0038L14.08 6.08L14.0495 5.8514L14.6743 5.9276L14.9638 6.8114L14.72 6.3543V6.8114L14.5676 6.7048L14.5981 6.8114L10.7276 6.8571H6.7962L0 6.4457L1.03619 6.1562L1.17333 5.9276L1.55429 5.8514L1.95048 5.3029L2.60571 4.9676L3.3219 4.3886L3.3676 4.7848L4.0229 5.1962L4.4343 4.9067L4.7086 5.12L5.379 4.9676L5.4248 4.7543L5.6381 4.8305L6.0495 4.6476L6.1867 4.7543L6.4914 4.541L6.6286 4.2819L6.5219 4.1295L7.4514 2.7581L7.741 1.9657L7.9543 2.0571L8 2.2857L8.4114 2.4229L8.96 1.4019L9.2038 1.539L10.0267 0.6705L10.179 0L11.0629 0.6705Z" fill="#E6CAAF"/>
</svg>
