<svg width="11" height="16" viewBox="0 0 11 16" fill="none" xmlns="http://www.w3.org/2000/svg">
<path d="M10.1744 3.06L9.97437 3.12L9.93438 3.48L9.55437 3.98L8.65438 4.68L8.05437 4.72L7.73438 5.16L7.69438 6.36L7.35438 7.12L7.45437 7.28L7.05437 7.92L6.87437 8.6L6.41438 9.08L6.27438 9.84L6.01438 10.24L5.93437 12L5.77437 12.34L5.55438 14.04L5.31437 14.28L5.15438 14.96L5.21438 15.28L5.59438 16L1.57438 15.82L1.39437 15.42L1.65438 10.24L1.33438 9.74H1.11438L0.794375 10.12L0.734375 9.84L1.07438 8.64L0.734375 6.68L1.01437 5.72L1.29438 5.4L1.25438 4.58L1.47437 3.96L1.05438 2.74L1.29438 1.6L1.07438 1.12L1.29438 0.52L1.25438 0.0799999L10.3544 0L10.2144 0.28L10.3344 0.82L9.83438 1.48L9.71437 1.92L10.1744 2.92V3.06Z" fill="#E6CAAF"/>
</svg>
