<svg width="16" height="11" viewBox="0 0 16 11" fill="none" xmlns="http://www.w3.org/2000/svg">
<path d="M1.35458 7.5582L1.25896 7.5108L1.32271 7.3373L1.38645 7.4635L1.35458 7.5582ZM3.9681 5.6331L3.8725 5.5385L3.9681 5.4753L4.0319 5.5385L3.9681 5.6331ZM3.6494 5.4753L3.5219 5.3176L3.6813 5.1282L3.6494 5.2229V5.4753ZM4.5418 4.8126L4.6693 4.9073L4.4462 5.0335L4.5259 4.8757L4.4781 4.8442L4.3506 5.0335L4.3825 4.6864L4.4781 4.5286L4.5418 4.8126ZM4.4303 4.2446V4.3393L4.255 4.2446L4.3187 3.929L4.4303 4.2446ZM4.1116 2.9191L4.0319 3.0296L4.0159 2.7456L4.0319 2.7929L4.1116 2.9191ZM4.2869 1.8935L4.4303 2.2091L4.255 2.146L4.0159 2.3826L4.2869 2.5089L4.3506 3.0769L4.4303 2.8245L4.6693 3.0296L4.6374 3.3452L4.4781 3.1085H4.3187L4.2231 2.6193H4.1116L3.9363 2.3826L4.1275 1.925L4.2869 1.8935ZM3.7769 1.6884L3.8088 1.8304L3.6016 1.641L3.7131 1.3886L3.7769 1.6884ZM4.1116 1.4517L4.0159 1.3728L4.0319 1.2781L4.1275 1.3886L4.1116 1.4517ZM3.49 1.5148L3.5219 1.7041L3.2032 1.5937L3.1394 1.2781L3.2988 1.2308L3.49 1.5148ZM3.7769 0.9467L3.9681 1.1045L3.8406 1.2781L3.6813 0.9783L3.745 1.2781L3.6175 1.2939L3.5219 1.1834L3.49 1.2781L3.4582 1.1361L3.6175 0.9467H3.7769ZM4.255 1.1361L4.0637 0.9467V0.8836L4.2072 1.0414L4.255 1.1361ZM3.4263 0.1262L3.3307 0.1578V0.0946999H3.4582L3.4263 0.1262ZM15.2191 0L15.5857 7.7318L15.8088 8.0473L15.9044 8.3314L15.8088 8.5207L16 8.8047L11.5697 8.9783L11.3785 9.1203L10.4064 9.215L10.2151 9.3728L9.6255 9.4832L9.0199 9.783L8.1912 9.8146L7.6175 10.0671L7.1076 10.1302L6.8526 9.8777L5.7689 9.8146L4.7649 10.2564L3.8088 10.0039L3.6813 9.0256L3.3307 8.5523L3.0438 8.3787L2.66135 8.4576L2.3745 8.142H2.03984L1.86454 8.0158L1.51394 8.1578L1.21116 7.9684L1.01992 8.0631L1.16335 7.0059L1.32271 7.7475L1.41833 7.6055L1.57769 7.6529L1.38645 7.5108L1.43426 7.2742L1.35458 7.0533L1.48207 7.1322L1.51394 6.8323L1.6255 6.927L1.76892 6.9112L1.51394 6.7219L1.0996 6.7377L1.01992 6.2012L1.21116 6.4221V6.2327L1.67331 6.075L1.32271 5.9803L1.11554 5.7594L0.9243 6.1065V5.3491L0.7012 4.8442L0.65339 3.9921L0.07968 2.9349L0 2.4773L0.1753 1.9724L0.0478101 1.783L1.57769 2.5089L2.91633 2.6982L3.2032 2.5089L3.1076 2.6035L3.3625 2.9191L3.6016 2.7456L3.6813 3.0769L3.7769 2.9349L3.6813 2.714L3.9044 2.6509L3.8725 2.8245L4.2072 3.4241L3.8088 3.9921V3.5187L3.745 3.7081L3.6813 3.5819L3.7131 3.8028L3.0438 4.9389L3.2351 4.9704L3.7131 4.7179L3.2669 4.9073L3.1394 4.8442L3.49 4.2446L3.8725 4.0552L4.1594 3.5187L4.2869 3.6134L4.2072 3.2347L4.3506 3.3452L4.4781 3.8028L4.3187 3.8343L4.2231 3.9921L4.1116 3.8501L4.2231 4.3077L4.0319 4.0868L4.0159 4.1815L4.1275 4.3077L4.0319 4.4655L4.2869 4.3077L4.3825 4.497L4.255 5.2544L4.0159 5.1282L4.1275 4.9073V4.8126L3.9363 5.002L3.8406 5.5069L3.7769 4.8442L3.4263 5.4753L3.2351 5.57L3.2032 5.6016H3.3307L3.2032 5.7278L3.49 5.4753L3.3307 5.7594L3.49 5.6016L3.5538 5.854L3.6494 5.5385V5.6331L3.7131 5.5385L3.9044 5.7278L4.2231 5.4122L4.3187 5.0966L4.5259 5.2544L4.7331 4.9704L4.5737 4.3393L4.7171 4.355L4.7331 4.2604L4.5418 4.0868L4.6215 3.6765L4.8127 3.2505L5.0518 3.0138L4.7331 2.8245L4.7171 2.43L4.5737 2.3826L4.5259 2.6035L4.7331 2.9191L4.4462 2.6982L4.4303 2.3826H4.6693V2.1933L4.3825 1.9724L4.3187 1.783L4.1594 1.8777L4.1116 1.7988L4.0637 1.5937L4.2072 1.5464L4.3187 1.7041V1.6095L4.4781 1.7041L4.3187 1.3254L4.5259 1.4201L4.5737 1.3728L4.4781 0.8521L4.3187 0.7732L4.1275 0.8836L4.0159 0.3471L3.9044 0.284L4.0319 0.2209L4.0159 0.1262L9.8167 0.1578L15.2191 0Z" fill="#E6CAAF"/>
</svg>
