<svg width="15" height="16" viewBox="0 0 15 16" fill="none" xmlns="http://www.w3.org/2000/svg">
<path d="M14.4 6.12H14.52L14.56 6.26L14.4 6.3L14.42 6.66L14.28 6.62L14.42 6.76L14.08 7.22L14.1 7.36L13.72 7.82L13.54 7.58L13.56 7.32L13.82 7L13.88 6.58L14.18 6.46L14.4 6.12ZM14.64 5.7L14.84 5.72L14.82 5.94H14.56L14.64 5.7ZM5.32 1.02L5.14 1.1L5.64 0.7L5.68 0.82L5.32 1.02ZM5.76 0.5V0.6L5.5 0.54L5.82 0.42L5.76 0.5ZM5.12 0.46L5.24 0.64L4.8 1.64L5.18 1.54L5.24 1.32L5.68 1.66L6.08 1.7L6.14 1.88L6.52 1.98L6.78 2.6L9.24 3.26L9.92 3.62L10.66 3.66L11.52 3.9L11.76 4.16L11.72 4.44L12.26 4.58L12.48 4.8L12.5 5.48L12.32 5.9L12.82 5.86L12.72 6.54L13.04 6.82L12.92 7.22L12.44 7.5L11.96 8.7L12.12 8.82L12.28 8.78L12.68 8.38L13.12 7.72L13.44 7.58L13.72 7.86L13.24 9.54L13.4 9.98L13.04 10.34L12.82 10.92L12.92 11.74L12.44 13.3L12.48 14.14L12.82 14.98L12.8 16H5.4L5.28 15.5L4.48 15.3L4.28 15L4.08 13.72L4.28 13.18L4 12.98L3.9 12.62V11.7L3.8 11.02L3.52 10.7L2.9 10.52L2.52 10.18L2.2 9.54L1.8 9.18L1.34 9.02L1.08 8.64L0.6 8.54L0.0600004 8.04L0.24 7.42L0.12 6.9L0.24 6.72V6.14L0.52 5.7L0.32 5.18L0 5.16V4.7L0.44 3.98L1.16 3.58H1.34L1.52 3.42L1.56 1.38H1.72L2.02 1L2.34 1.32L2.76 1.28L3.68 1L4.16 0.64L4.4 0.74L4.76 0.46L4.96 0.36L5.12 0.46ZM5.4 0.54L5.22 0.46L5.28 0.38L5.4 0.46V0.54ZM4.8 0.36L4.72 0.32L4.8 0.22L4.86 0.28L4.8 0.36ZM6.08 0.22L5.92 0.28L6.08 0V0.14V0.22Z" fill="#E6CAAF"/>
</svg>
