<svg width="186" height="32" viewBox="0 0 186 32" fill="none" xmlns="http://www.w3.org/2000/svg">
<ellipse cx="12.424" cy="12.4568" rx="12.424" ry="12.4568" transform="matrix(1 0 0 -1 161.152 28.4691)" fill="#FFFDE7"/>
<ellipse cx="11.0881" cy="11.1173" rx="11.0881" ry="11.1173" transform="matrix(1 0 0 -1 162.266 27.353)" fill="#FFF8CB"/>
<ellipse cx="9.9748" cy="10.0011" rx="9.9748" ry="10.0011" transform="matrix(1 0 0 -1 163.379 26.2365)" fill="#FFF2AC"/>
<ellipse cx="8.86155" cy="8.88494" rx="8.86155" ry="8.88494" transform="matrix(1 0 0 -1 164.492 25.1205)" fill="#FFED8D"/>
<ellipse cx="7.74829" cy="7.76874" rx="7.74829" ry="7.76874" transform="matrix(1 0 0 -1 165.605 24.0046)" fill="#FFE279"/>
<path d="M10.1447 25.2844C8.93104 25.2844 7.79326 25.1043 6.73133 24.744C5.68837 24.3837 4.77815 23.8812 4.00066 23.2364C3.22318 22.5727 2.64481 21.8047 2.26555 20.9324C2.09489 20.6101 2.0854 20.3067 2.23711 20.0222C2.40778 19.7378 2.68274 19.5481 3.062 19.4533C3.34644 19.3775 3.63089 19.4154 3.91533 19.5671C4.19978 19.6999 4.40837 19.9179 4.54111 20.2213C4.82555 20.7523 5.23326 21.2359 5.76422 21.672C6.31415 22.0892 6.95889 22.421 7.69844 22.6676C8.45696 22.8951 9.27237 23.0089 10.1447 23.0089C11.1307 23.0089 12.0125 22.8477 12.79 22.5253C13.5675 22.203 14.1838 21.7384 14.6389 21.1316C15.094 20.5247 15.3216 19.7852 15.3216 18.9129C15.3216 17.813 14.9044 16.8554 14.07 16.04C13.2356 15.2056 11.9082 14.6841 10.0878 14.4756C7.83118 14.2101 6.05815 13.5179 4.76866 12.3991C3.49815 11.2803 2.86289 9.896 2.86289 8.24622C2.86289 7.07052 3.18526 6.056 3.83 5.20267C4.47474 4.33037 5.35652 3.66667 6.47533 3.21155C7.59415 2.73748 8.86466 2.50044 10.2869 2.50044C11.3678 2.50044 12.3349 2.67111 13.1882 3.01244C14.0416 3.33481 14.7811 3.77096 15.4069 4.32089C16.0516 4.87081 16.5826 5.48711 16.9998 6.16978C17.2273 6.51111 17.3032 6.84296 17.2273 7.16533C17.1704 7.46874 16.9998 7.70578 16.7153 7.87644C16.4119 8.02815 16.0896 8.05659 15.7482 7.96178C15.4259 7.848 15.1793 7.63941 15.0087 7.336C14.7242 6.88089 14.3639 6.4637 13.9278 6.08444C13.5106 5.68622 12.9986 5.37333 12.3918 5.14578C11.785 4.91822 11.0644 4.79496 10.23 4.776C8.76985 4.776 7.57518 5.07941 6.646 5.68622C5.71681 6.29304 5.25222 7.19378 5.25222 8.38844C5.25222 8.99526 5.4134 9.57363 5.73578 10.1236C6.07711 10.6545 6.63652 11.1096 7.414 11.4889C8.21044 11.8681 9.29133 12.1526 10.6567 12.3422C13.0081 12.6456 14.7716 13.3567 15.9473 14.4756C17.123 15.5944 17.7109 17.064 17.7109 18.8844C17.7109 19.9274 17.5118 20.8471 17.1136 21.6436C16.7343 22.44 16.1939 23.1132 15.4922 23.6631C14.7906 24.1941 13.9752 24.6018 13.046 24.8862C12.1358 25.1517 11.1687 25.2844 10.1447 25.2844ZM29.1149 25.1422C27.5789 25.1422 26.2136 24.8009 25.0189 24.1182C23.8432 23.4356 22.914 22.4969 22.2313 21.3022C21.5487 20.1076 21.2073 18.7517 21.2073 17.2347C21.2073 15.6987 21.5487 14.3333 22.2313 13.1387C22.914 11.944 23.8432 11.0053 25.0189 10.3227C26.2136 9.64 27.5789 9.29867 29.1149 9.29867C30.6319 9.29867 31.9783 9.64 33.154 10.3227C34.3297 11.0053 35.2589 11.944 35.9416 13.1387C36.6242 14.3333 36.975 15.6987 36.994 17.2347C36.994 18.7517 36.6527 20.1076 35.97 21.3022C35.2873 22.4969 34.3487 23.4356 33.154 24.1182C31.9783 24.8009 30.6319 25.1422 29.1149 25.1422ZM29.1149 22.9804C30.1768 22.9804 31.125 22.7339 31.9593 22.2409C32.7937 21.7289 33.4479 21.0462 33.922 20.1929C34.3961 19.3206 34.6331 18.3345 34.6331 17.2347C34.6331 16.1348 34.3961 15.1487 33.922 14.2764C33.4479 13.4041 32.7937 12.7215 31.9593 12.2284C31.125 11.7164 30.1768 11.4604 29.1149 11.4604C28.053 11.4604 27.0953 11.7164 26.242 12.2284C25.4076 12.7215 24.7439 13.4041 24.2509 14.2764C23.7768 15.1487 23.5398 16.1348 23.5398 17.2347C23.5398 18.3345 23.7768 19.3206 24.2509 20.1929C24.7439 21.0462 25.4076 21.7289 26.242 22.2409C27.0953 22.7339 28.053 22.9804 29.1149 22.9804ZM44.7247 25C43.9282 25 43.2266 24.7914 42.6198 24.3742C42.013 23.9381 41.5389 23.3407 41.1976 22.5822C40.8562 21.8237 40.6856 20.9514 40.6856 19.9653V3.97955C40.6856 3.61926 40.7899 3.33481 40.9984 3.12622C41.226 2.89867 41.5199 2.78489 41.8802 2.78489C42.2216 2.78489 42.4965 2.89867 42.7051 3.12622C42.9327 3.33481 43.0464 3.61926 43.0464 3.97955V19.9653C43.0464 20.7428 43.1981 21.3876 43.5016 21.8996C43.8239 22.3926 44.2316 22.6391 44.7247 22.6391H45.4358C45.7392 22.6391 45.9857 22.7529 46.1753 22.9804C46.365 23.189 46.4598 23.464 46.4598 23.8053C46.4598 24.1656 46.3176 24.4596 46.0331 24.6871C45.7676 24.8957 45.4168 25 44.9807 25H44.7247ZM59.2898 25C58.9295 25 58.6356 24.8862 58.408 24.6587C58.1804 24.4311 58.0667 24.1372 58.0667 23.7769V4.008C58.0667 3.6477 58.1804 3.35378 58.408 3.12622C58.6356 2.89867 58.9295 2.78489 59.2898 2.78489C59.6501 2.78489 59.944 2.89867 60.1716 3.12622C60.3991 3.35378 60.5129 3.6477 60.5129 4.008V12.6551H74.1947V4.008C74.1947 3.6477 74.3084 3.35378 74.536 3.12622C74.7636 2.89867 75.0575 2.78489 75.4178 2.78489C75.7591 2.78489 76.0436 2.89867 76.2711 3.12622C76.4987 3.35378 76.6124 3.6477 76.6124 4.008V23.7769C76.6124 24.1372 76.4987 24.4311 76.2711 24.6587C76.0436 24.8862 75.7591 25 75.4178 25C75.0575 25 74.7636 24.8862 74.536 24.6587C74.3084 24.4311 74.1947 24.1372 74.1947 23.7769V14.8453H60.5129V23.7769C60.5129 24.1372 60.3991 24.4311 60.1716 24.6587C59.944 24.8862 59.6501 25 59.2898 25ZM89.144 25.1422C87.589 25.1422 86.2142 24.8104 85.0196 24.1467C83.8249 23.464 82.8862 22.5253 82.2036 21.3307C81.5209 20.136 81.1796 18.7707 81.1796 17.2347C81.1796 15.6797 81.5019 14.3144 82.1467 13.1387C82.7914 11.944 83.6732 11.0053 84.792 10.3227C85.9298 9.64 87.2382 9.29867 88.7173 9.29867C90.1585 9.29867 91.4101 9.63052 92.472 10.2942C93.5529 10.939 94.3778 11.8397 94.9467 12.9964C95.5345 14.1532 95.8284 15.4711 95.8284 16.9502C95.8284 17.2726 95.7241 17.5381 95.5156 17.7467C95.307 17.9363 95.0415 18.0311 94.7191 18.0311H82.8293V16.0684H94.8613L93.6382 16.9218C93.6572 15.8788 93.4676 14.9401 93.0693 14.1058C92.6711 13.2714 92.1022 12.6172 91.3627 12.1431C90.6231 11.669 89.7413 11.432 88.7173 11.432C87.6364 11.432 86.6883 11.6785 85.8729 12.1716C85.0764 12.6646 84.4601 13.3567 84.024 14.248C83.6068 15.1203 83.3982 16.1159 83.3982 17.2347C83.3982 18.3535 83.6447 19.349 84.1378 20.2213C84.6308 21.0936 85.304 21.7763 86.1573 22.2693C87.0296 22.7624 88.0252 23.0089 89.144 23.0089C89.7887 23.0089 90.443 22.8951 91.1067 22.6676C91.7893 22.44 92.3298 22.1556 92.728 21.8142C92.9556 21.6436 93.2116 21.5582 93.496 21.5582C93.7994 21.5393 94.0459 21.6151 94.2356 21.7858C94.52 22.0323 94.6622 22.2978 94.6622 22.5822C94.6812 22.8667 94.5579 23.1132 94.2924 23.3218C93.6667 23.8527 92.8702 24.2889 91.9031 24.6302C90.936 24.9716 90.0163 25.1422 89.144 25.1422ZM105.718 25.1422C104.277 25.1422 102.987 24.8009 101.85 24.1182C100.712 23.4166 99.811 22.4684 99.1473 21.2738C98.4836 20.0791 98.1518 18.7327 98.1518 17.2347C98.1518 15.7176 98.4931 14.3618 99.1758 13.1671C99.8774 11.9724 100.826 11.0338 102.02 10.3511C103.215 9.64948 104.561 9.29867 106.059 9.29867C107.538 9.29867 108.866 9.64948 110.042 10.3511C111.236 11.0338 112.175 11.9724 112.858 13.1671C113.559 14.3618 113.919 15.7176 113.938 17.2347L112.971 17.7182C112.971 19.1215 112.649 20.3825 112.004 21.5013C111.378 22.6201 110.516 23.5114 109.416 24.1751C108.335 24.8199 107.102 25.1422 105.718 25.1422ZM106.059 22.9804C107.121 22.9804 108.06 22.7339 108.875 22.2409C109.71 21.7289 110.364 21.0367 110.838 20.1644C111.331 19.2921 111.578 18.3156 111.578 17.2347C111.578 16.1348 111.331 15.1582 110.838 14.3049C110.364 13.4326 109.71 12.7404 108.875 12.2284C108.06 11.7164 107.121 11.4604 106.059 11.4604C105.016 11.4604 104.068 11.7164 103.215 12.2284C102.381 12.7404 101.717 13.4326 101.224 14.3049C100.731 15.1582 100.484 16.1348 100.484 17.2347C100.484 18.3156 100.731 19.2921 101.224 20.1644C101.717 21.0367 102.381 21.7289 103.215 22.2409C104.068 22.7339 105.016 22.9804 106.059 22.9804ZM112.715 25C112.374 25 112.08 24.8957 111.834 24.6871C111.606 24.4596 111.492 24.1656 111.492 23.8053V19.112L112.033 16.6373L113.938 17.2347V23.8053C113.938 24.1656 113.825 24.4596 113.597 24.6871C113.37 24.8957 113.076 25 112.715 25ZM121.669 25C120.873 25 120.171 24.7914 119.564 24.3742C118.957 23.9381 118.483 23.3407 118.142 22.5822C117.801 21.8237 117.63 20.9514 117.63 19.9653V3.97955C117.63 3.61926 117.734 3.33481 117.943 3.12622C118.17 2.89867 118.464 2.78489 118.825 2.78489C119.166 2.78489 119.441 2.89867 119.65 3.12622C119.877 3.33481 119.991 3.61926 119.991 3.97955V19.9653C119.991 20.7428 120.143 21.3876 120.446 21.8996C120.768 22.3926 121.176 22.6391 121.669 22.6391H122.38C122.684 22.6391 122.93 22.7529 123.12 22.9804C123.309 23.189 123.404 23.464 123.404 23.8053C123.404 24.1656 123.262 24.4596 122.978 24.6871C122.712 24.8957 122.361 25 121.925 25H121.669ZM132.338 25C131.352 25 130.47 24.763 129.693 24.2889C128.915 23.8148 128.299 23.1606 127.844 22.3262C127.408 21.4919 127.19 20.5532 127.19 19.5102V5.68622C127.19 5.34489 127.294 5.06044 127.503 4.83289C127.73 4.60533 128.024 4.49155 128.384 4.49155C128.726 4.49155 129.01 4.60533 129.238 4.83289C129.465 5.06044 129.579 5.34489 129.579 5.68622V19.5102C129.579 20.4015 129.835 21.141 130.347 21.7289C130.878 22.3167 131.542 22.6107 132.338 22.6107H133.192C133.495 22.6107 133.751 22.7244 133.96 22.952C134.168 23.1796 134.272 23.464 134.272 23.8053C134.272 24.1656 134.14 24.4596 133.874 24.6871C133.628 24.8957 133.305 25 132.907 25H132.338ZM125.512 12.0862C125.189 12.0862 124.924 11.9914 124.715 11.8018C124.507 11.5932 124.402 11.3467 124.402 11.0622C124.402 10.7588 124.507 10.5123 124.715 10.3227C124.924 10.1141 125.189 10.0098 125.512 10.0098H132.537C132.86 10.0098 133.125 10.1141 133.334 10.3227C133.542 10.5123 133.647 10.7588 133.647 11.0622C133.647 11.3467 133.542 11.5932 133.334 11.8018C133.125 11.9914 132.86 12.0862 132.537 12.0862H125.512ZM139.061 18.856C138.682 18.856 138.378 18.7422 138.151 18.5147C137.942 18.2871 137.838 18.0027 137.838 17.6613V4.008C137.838 3.62874 137.942 3.33481 138.151 3.12622C138.378 2.89867 138.682 2.78489 139.061 2.78489C139.421 2.78489 139.706 2.89867 139.914 3.12622C140.142 3.33481 140.256 3.62874 140.256 4.008V17.6613C140.256 18.0027 140.142 18.2871 139.914 18.5147C139.706 18.7422 139.421 18.856 139.061 18.856ZM151.121 25C150.761 25 150.467 24.8862 150.24 24.6587C150.012 24.4311 149.898 24.1467 149.898 23.8053V16.552C149.898 15.3953 149.68 14.4566 149.244 13.736C148.827 12.9964 148.248 12.4465 147.509 12.0862C146.769 11.707 145.925 11.5173 144.977 11.5173C144.086 11.5173 143.28 11.6975 142.56 12.0578C141.858 12.3991 141.299 12.8732 140.881 13.48C140.464 14.0679 140.256 14.7505 140.256 15.528H138.606C138.644 14.3333 138.957 13.2714 139.544 12.3422C140.151 11.3941 140.957 10.645 141.962 10.0951C142.967 9.54518 144.086 9.27022 145.319 9.27022C146.646 9.27022 147.831 9.55467 148.874 10.1236C149.936 10.6735 150.771 11.4889 151.377 12.5698C152.003 13.6507 152.316 14.9781 152.316 16.552V23.8053C152.316 24.1467 152.202 24.4311 151.975 24.6587C151.747 24.8862 151.463 25 151.121 25ZM139.061 25C138.682 25 138.378 24.8957 138.151 24.6871C137.942 24.4596 137.838 24.1656 137.838 23.8053V10.664C137.838 10.2847 137.942 9.99081 138.151 9.78222C138.378 9.55467 138.682 9.44089 139.061 9.44089C139.421 9.44089 139.706 9.55467 139.914 9.78222C140.142 9.99081 140.256 10.2847 140.256 10.664V23.8053C140.256 24.1656 140.142 24.4596 139.914 24.6871C139.706 24.8957 139.421 25 139.061 25Z" fill="black"/>
</svg>
